<svg xmlns="http://www.w3.org/2000/svg" viewBox="0 0 100 100">
  <path d="M92.866 0H7.134A7.134 7.134 0 0 0 0 7.134v85.732A7.134 7.134 0 0 0 7.134 100h85.732A7.134 7.134 0 0 0 100 92.866V7.134A7.134 7.134 0 0 0 92.866 0zm-3.5 85.017c0 1.791-1.402 3.193-3.193 3.193H13.827a3.196 3.196 0 0 1-3.193-3.193V14.983c0-1.791 1.402-3.193 3.193-3.193h72.346a3.196 3.196 0 0 1 3.193 3.193v70.034zm-15.52-61.34c-1.04-1.196-2.783-1.55-4.212-.84l-29.624 15.557a7.136 7.136 0 0 1-6.822 0L12.868 23.842c-1.429-.71-3.172-.356-4.212.84a2.845 2.845 0 0 0-.84 2.127v45.592c0 .835.315 1.639.84 2.127 1.04 1.196 2.783 1.55 4.212.84l29.624-15.557a7.136 7.136 0 0 1 6.822 0l29.624 15.557c1.429.71 3.172.356 4.212-.84a2.845 2.845 0 0 0 .84-2.127V26.783a2.845 2.845 0 0 0-.84-2.127zM50 61.526a9.474 9.474 0 0 0-4.712 1.26L17.618 76.97a1.42 1.42 0 0 1-2.115-1.233V24.263c0-.642.408-1.182.994-1.388a1.42 1.42 0 0 1 1.121.162l27.67 14.518c.916.482 1.944.482 2.86 0L81.486 23.03c.388-.206.994-.388 1.487-.162.586.206.994.746.994 1.388v51.474a1.42 1.42 0 0 1-2.115 1.233L54.712 62.786a9.474 9.474 0 0 0-4.712-1.26z"/>
</svg>
